<svg width="21" height="22" viewBox="0 0 21 22" fill="none" xmlns="http://www.w3.org/2000/svg">
<path d="M3.58219 21.1722C2.71086 21.1722 1.89627 20.8318 1.28026 20.2198C0.664254 19.6038 0.327881 18.7892 0.327881 17.9179V6.38802C0.327881 5.51669 0.668306 4.7021 1.28026 4.08609C1.89627 3.47009 2.71491 3.13371 3.58219 3.13371H8.19414C8.71694 3.13371 9.14247 3.55924 9.14247 4.08204C9.14247 4.60484 8.71694 5.03037 8.19414 5.03037H3.58219C3.2215 5.03037 2.88107 5.17221 2.62575 5.42753C2.37043 5.68285 2.22859 6.02328 2.22859 6.38397V17.9098C2.22859 18.2705 2.37043 18.6109 2.62575 18.8662C2.88107 19.1216 3.2215 19.2634 3.58219 19.2634H15.108C15.4687 19.2634 15.8091 19.1216 16.0645 18.8662C16.3198 18.6109 16.4616 18.2705 16.4616 17.9098V13.306C16.4616 12.7832 16.8872 12.3576 17.4099 12.3576C17.9327 12.3576 18.3583 12.7832 18.3583 13.306V17.9179C18.3583 18.7892 18.0178 19.6038 17.4059 20.2198C16.7899 20.8358 15.9753 21.1722 15.104 21.1722H3.58219ZM8.19414 14.2543C7.93882 14.2543 7.69971 14.157 7.5214 13.9746C7.34308 13.7963 7.24176 13.5572 7.24176 13.3019C7.24176 13.0466 7.33903 12.8075 7.5214 12.6292L17.4262 2.72844H12.8061C12.2833 2.72844 11.8578 2.30291 11.8578 1.78012C11.8578 1.25732 12.2833 0.831787 12.8061 0.831787H19.724C19.8537 0.831787 19.9753 0.856103 20.0928 0.904735C20.2022 0.949315 20.2995 1.01821 20.3846 1.09926L20.3927 1.10737L20.4049 1.11953L20.4089 1.12358C20.49 1.20869 20.5508 1.3019 20.5954 1.40727C20.644 1.5248 20.6683 1.65043 20.6683 1.77606V8.694C20.6683 9.21679 20.2428 9.64232 19.72 9.64232C19.1972 9.64232 18.7717 9.21679 18.7717 8.694V4.06988L8.86689 13.9787C8.68857 14.157 8.44946 14.2543 8.19414 14.2543Z" fill="#666666"/>
</svg>
