<svg width="13" height="13" viewBox="0 0 13 13" fill="none" xmlns="http://www.w3.org/2000/svg">
<path fill-rule="evenodd" clip-rule="evenodd" d="M10.5691 7.27679C10.607 7.30591 10.6486 7.32818 10.6938 7.34356C10.7391 7.35895 10.7856 7.36666 10.8333 7.36666C10.953 7.36666 11.0551 7.32432 11.1398 7.23974C11.2244 7.15511 11.2667 7.05297 11.2667 6.93333V2.16624C11.2667 1.56805 11.0552 1.05746 10.6322 0.634475C10.2092 0.211493 9.69862 0 9.10044 0H2.16624C1.56804 0 1.05746 0.211493 0.634474 0.634475C0.211493 1.05746 0 1.56805 0 2.16624V10.8338C0 11.432 0.211493 11.9425 0.634474 12.3656C1.05746 12.7885 1.56804 13 2.16624 13H6.50001C6.61965 13 6.72179 12.9577 6.80642 12.8731C6.89105 12.7885 6.93334 12.6864 6.93334 12.5667C6.93334 12.4994 6.91848 12.4356 6.88875 12.3753C6.85907 12.3149 6.81755 12.2642 6.76421 12.2232C6.72634 12.1941 6.68478 12.1718 6.63954 12.1564C6.5943 12.141 6.5478 12.1333 6.50001 12.1333H2.16624C1.73305 12.1333 1.40815 12.025 1.19156 11.8085C0.974967 11.5919 0.866668 11.267 0.866668 10.8338V2.16624C0.866668 1.29986 1.29986 0.866668 2.16624 0.866668H9.10044C9.96681 0.866668 10.4 1.29986 10.4 2.16624V6.93333C10.4 7.00058 10.4149 7.06441 10.4446 7.12473C10.4743 7.18509 10.5158 7.23579 10.5691 7.27679ZM1.3 2.60006C1.3 1.73339 1.73334 1.30005 2.6 1.30005C3.46667 1.30005 3.9 1.73339 3.9 2.60006C3.9 3.46672 3.46667 3.90007 2.6 3.90007C1.73334 3.90007 1.3 3.46672 1.3 2.60006ZM6.06624 1.30005H8.66711C9.53347 1.30005 9.96668 1.73325 9.96668 2.59962V2.60049C9.96668 3.46687 9.53347 3.90007 8.66711 3.90007H6.06624C5.19988 3.90007 4.76667 3.46687 4.76667 2.60049V2.59962C4.76667 1.73325 5.19988 1.30005 6.06624 1.30005ZM2.16667 2.60006C2.16667 2.88895 2.31111 3.03339 2.6 3.03339C2.74445 3.03339 2.85278 2.99728 2.925 2.92506C2.99723 2.85283 3.03334 2.7445 3.03334 2.60006C3.03334 2.31117 2.88889 2.16672 2.6 2.16672C2.45556 2.16672 2.34723 2.20283 2.275 2.27506C2.20278 2.34728 2.16667 2.45561 2.16667 2.60006ZM6.06624 2.16672C5.77764 2.16672 5.63334 2.31102 5.63334 2.59962V2.60049C5.63334 2.88909 5.77764 3.03339 6.06624 3.03339H8.66711C8.95571 3.03339 9.10001 2.88909 9.10001 2.60049V2.59962C9.10001 2.31102 8.95571 2.16672 8.66711 2.16672H6.06624ZM2.6 4.33341C1.73334 4.33341 1.3 4.76674 1.3 5.63341C1.3 6.50008 1.73334 6.93341 2.6 6.93341C3.46667 6.93341 3.9 6.50008 3.9 5.63341C3.9 4.76674 3.46667 4.33341 2.6 4.33341ZM8.66711 4.33341H6.06624C5.70735 4.33341 5.40107 4.46029 5.14731 4.71401C4.89355 4.96777 4.76667 5.27409 4.76667 5.63298V5.63384C4.76667 6.50021 5.19988 6.93341 6.06624 6.93341H8.66711C9.02595 6.93341 9.33228 6.80653 9.58604 6.55277C9.8398 6.29901 9.96668 5.99269 9.96668 5.63384V5.63298C9.96668 4.76657 9.53347 4.33341 8.66711 4.33341ZM2.6 6.06674C2.31111 6.06674 2.16667 5.92227 2.16667 5.63341C2.16667 5.48894 2.20278 5.3806 2.275 5.30841C2.34723 5.23617 2.45556 5.20008 2.6 5.20008C2.88889 5.20008 3.03334 5.34451 3.03334 5.63341C3.03334 5.77784 2.99723 5.88617 2.925 5.95841C2.85278 6.0306 2.74445 6.06674 2.6 6.06674ZM5.63334 5.63298C5.63334 5.34438 5.77764 5.20008 6.06624 5.20008H8.66711C8.95571 5.20008 9.10001 5.34438 9.10001 5.63298V5.63384C9.10001 5.92244 8.95571 6.06674 8.66711 6.06674H6.06624C5.77764 6.06674 5.63334 5.92244 5.63334 5.63384V5.63298ZM1.3 8.66666C1.3 7.79999 1.73334 7.36666 2.6 7.36666C3.46667 7.36666 3.9 7.79999 3.9 8.66666C3.9 9.53333 3.46667 9.96666 2.6 9.96666C1.73334 9.96666 1.3 9.53333 1.3 8.66666ZM7.69488 8.56149C7.18719 9.06919 6.93334 9.68201 6.93334 10.4C6.93334 11.1179 7.18719 11.7308 7.69488 12.2385C8.20253 12.7462 8.81535 13 9.53335 13C10.2513 13 10.8642 12.7462 11.3718 12.2385C11.8795 11.7308 12.1333 11.1179 12.1333 10.4C12.1333 9.68201 11.8795 9.06919 11.3718 8.56149C10.8642 8.05384 10.2513 7.79999 9.53335 7.79999C8.81535 7.79999 8.20253 8.05384 7.69488 8.56149ZM2.16667 8.66666C2.16667 8.95552 2.31111 9.1 2.6 9.1C2.88889 9.1 3.03334 8.95552 3.03334 8.66666C3.03334 8.37776 2.88889 8.23333 2.6 8.23333C2.31111 8.23333 2.16667 8.37776 2.16667 8.66666ZM9.53335 12.1333C8.37777 12.1333 7.80001 11.5555 7.80001 10.4C7.80001 9.24443 8.37777 8.66666 9.53335 8.66666C10.6889 8.66666 11.2667 9.24443 11.2667 10.4C11.2667 11.5555 10.6889 12.1333 9.53335 12.1333ZM9.96668 9.53341V10.4372L10.2731 10.7436C10.3577 10.8283 10.4 10.9304 10.4 11.05C10.4 11.1697 10.3577 11.2718 10.2731 11.3565C10.1885 11.4411 10.0863 11.4834 9.96668 11.4834C9.84704 11.4834 9.7449 11.4411 9.66027 11.3565L9.22693 10.9231C9.18629 10.8825 9.155 10.8356 9.13299 10.7825C9.11102 10.7295 9.10001 10.6742 9.10001 10.6167V9.53341C9.10001 9.41377 9.1423 9.31164 9.22693 9.22701C9.31157 9.14242 9.4137 9.10008 9.53335 9.10008C9.65299 9.10008 9.75513 9.14242 9.83976 9.22701C9.92439 9.31164 9.96668 9.41377 9.96668 9.53341Z" fill="#666666"/>
</svg>
