<svg width="25" height="24" viewBox="0 0 25 24" fill="none" xmlns="http://www.w3.org/2000/svg">
<path fill-rule="evenodd" clip-rule="evenodd" d="M12.46 11.5C12.46 11.2 12.3 10.8 12.06 10.6C11.82 10.4 11.5 10.2 11.1 10.2H10.14C9.82001 10.2 9.42003 10.3 9.18003 10.6C8.94003 10.8 8.78003 11.2 8.78003 11.5V12.5C8.78003 12.8 8.94003 13.2 9.18003 13.4C9.42003 13.6 9.74001 13.8 10.14 13.8H11.1C11.42 13.8 11.82 13.7 12.06 13.4C12.3 13.2 12.46 12.8 12.46 12.5V11.5ZM11.34 11.5V12.5V12.6H11.26H10.3H10.22V12.5V11.5V11.4H10.3H11.26C11.18 11.4 11.26 11.4 11.34 11.5Z" fill="#666666"/>
<path fill-rule="evenodd" clip-rule="evenodd" d="M12.46 16.3C12.46 16 12.3 15.6 12.06 15.4C11.82 15.2 11.5 15 11.1 15H10.14C9.82001 15 9.42003 15.1 9.18003 15.4C8.94003 15.6 8.78003 16 8.78003 16.3V17.3C8.78003 17.6 8.94003 18 9.18003 18.2C9.42003 18.4 9.74001 18.6 10.14 18.6H11.1C11.42 18.6 11.82 18.5 12.06 18.2C12.3 18 12.46 17.6 12.46 17.3V16.3ZM11.34 16.3V17.3V17.4H11.26H10.3H10.22V17.3V16.3V16.2H10.3H11.26C11.18 16.2 11.26 16.2 11.34 16.3Z" fill="#666666"/>
<path fill-rule="evenodd" clip-rule="evenodd" d="M8.99983 7.59999L9.89983 8.8C9.99983 9 10.1998 8.99999 10.3998 8.99999C10.5998 8.99999 10.7998 8.89999 10.8998 8.69999L12.3998 6.3C12.5998 6 12.4998 5.59999 12.1998 5.49999C11.8998 5.39999 11.4998 5.39999 11.3998 5.69999L10.3998 7.4L9.99983 6.9C9.79983 6.6 9.39984 6.6 9.19984 6.8C8.99984 7 8.79983 7.29999 8.99983 7.59999Z" fill="#666666"/>
<path fill-rule="evenodd" clip-rule="evenodd" d="M5.89993 5.4H5.29993C4.99993 5.4 4.69995 5.7 4.69995 6C4.69995 6.3 4.99993 6.6 5.29993 6.6H5.89993V8.4H5.29993C4.99993 8.4 4.69995 8.7 4.69995 9C4.69995 9.3 4.99993 9.6 5.29993 9.6H5.89993V11.4H5.29993C4.99993 11.4 4.69995 11.7 4.69995 12C4.69995 12.3 4.99993 12.6 5.29993 12.6H5.89993V14.4H5.29993C4.99993 14.4 4.69995 14.7 4.69995 15C4.69995 15.3 4.99993 15.6 5.29993 15.6H5.89993V17.4H5.29993C4.99993 17.4 4.69995 17.7 4.69995 18C4.69995 18.3 4.99993 18.6 5.29993 18.6H5.89993V19.7C5.89993 20 5.99993 20.4 6.29993 20.6C6.49993 20.8 6.89995 21 7.19995 21H18.9999C19.2999 21 19.6999 20.9 19.8999 20.6C20.0999 20.4 20.2999 20 20.2999 19.7V4.3C20.2999 4 20.1999 3.6 19.8999 3.4C19.6999 3.2 19.2999 3 18.9999 3C16.6999 3 9.49995 3 7.19995 3C6.89995 3 6.49993 3.1 6.29993 3.4C6.09993 3.6 5.89993 4 5.89993 4.3V5.4ZM7.09995 18.6V19.7V19.8H7.19995H18.9999H19.0999V19.7V4.3V4.2H18.9999H7.19995H7.09995V4.3V5.4H7.39993C7.69993 5.4 7.99994 5.7 7.99994 6C7.99994 6.3 7.69993 6.6 7.39993 6.6H7.09995V8.4H7.39993C7.69993 8.4 7.99994 8.7 7.99994 9C7.99994 9.3 7.69993 9.6 7.39993 9.6H7.09995V11.4H7.39993C7.69993 11.4 7.99994 11.7 7.99994 12C7.99994 12.3 7.69993 12.6 7.39993 12.6H7.09995V14.4H7.39993C7.69993 14.4 7.99994 14.7 7.99994 15C7.99994 15.3 7.69993 15.6 7.39993 15.6H7.09995V17.4H7.39993C7.69993 17.4 7.99994 17.7 7.99994 18C7.99994 18.3 7.69993 18.6 7.39993 18.6H7.09995Z" fill="#666666"/>
<path fill-rule="evenodd" clip-rule="evenodd" d="M13.6999 7.79998H17.2998C17.5998 7.79998 17.8998 7.49997 17.8998 7.19997C17.8998 6.89997 17.5998 6.59998 17.2998 6.59998H13.6999C13.3999 6.59998 13.0999 6.89997 13.0999 7.19997C13.0999 7.49997 13.3999 7.79998 13.6999 7.79998Z" fill="#666666"/>
<path fill-rule="evenodd" clip-rule="evenodd" d="M13.6999 12.6H17.2998C17.5998 12.6 17.8998 12.3 17.8998 12C17.8998 11.7 17.5998 11.4 17.2998 11.4H13.6999C13.3999 11.4 13.0999 11.7 13.0999 12C13.0999 12.3 13.3999 12.6 13.6999 12.6Z" fill="#666666"/>
<path fill-rule="evenodd" clip-rule="evenodd" d="M13.6999 17.4H17.2998C17.5998 17.4 17.8998 17.1 17.8998 16.8C17.8998 16.5 17.5998 16.2 17.2998 16.2H13.6999C13.3999 16.2 13.0999 16.5 13.0999 16.8C13.0999 17.1 13.3999 17.4 13.6999 17.4Z" fill="#666666"/>
</svg>
