<svg width="16" height="16" viewBox="0 0 16 16" fill="none" xmlns="http://www.w3.org/2000/svg">
<path d="M10.7814 8.53247C11.5167 7.95397 12.0534 7.16066 12.3168 6.26293C12.5803 5.36519 12.5573 4.40767 12.2512 3.52357C11.9451 2.63947 11.3711 1.87277 10.609 1.33011C9.84681 0.787461 8.93449 0.49585 7.9989 0.49585C7.06331 0.49585 6.15098 0.787461 5.38885 1.33011C4.62671 1.87277 4.05266 2.63947 3.74656 3.52357C3.44046 4.40767 3.41753 5.36519 3.68097 6.26293C3.94441 7.16066 4.4811 7.95397 5.2164 8.53247C3.95646 9.03725 2.85711 9.87448 2.03557 10.9549C1.21402 12.0353 0.701071 13.3184 0.551399 14.6675C0.540565 14.766 0.549236 14.8656 0.576918 14.9608C0.6046 15.0559 0.650749 15.1447 0.712732 15.222C0.837913 15.3781 1.01999 15.4781 1.2189 15.5C1.41781 15.5218 1.61727 15.4638 1.77339 15.3386C1.92952 15.2135 2.02952 15.0314 2.0514 14.8325C2.21609 13.3664 2.91516 12.0123 4.01506 11.0291C5.11496 10.0458 6.53857 9.50224 8.0139 9.50224C9.48923 9.50224 10.9128 10.0458 12.0127 11.0291C13.1126 12.0123 13.8117 13.3664 13.9764 14.8325C13.9968 15.0168 14.0847 15.187 14.2232 15.3102C14.3617 15.4335 14.541 15.5011 14.7264 15.5H14.8089C15.0055 15.4773 15.1852 15.3779 15.3088 15.2234C15.4324 15.0689 15.49 14.8717 15.4689 14.675C15.3185 13.3221 14.8028 12.0357 13.977 10.9536C13.1513 9.87154 12.0466 9.03458 10.7814 8.53247ZM7.9989 7.99997C7.40556 7.99997 6.82554 7.82402 6.33219 7.49438C5.83884 7.16474 5.45432 6.6962 5.22726 6.14802C5.0002 5.59984 4.94079 4.99664 5.05654 4.4147C5.1723 3.83276 5.45802 3.29821 5.87758 2.87865C6.29714 2.45909 6.83169 2.17337 7.41363 2.05762C7.99557 1.94186 8.59877 2.00127 9.14695 2.22833C9.69513 2.4554 10.1637 2.83991 10.4933 3.33326C10.823 3.82661 10.9989 4.40663 10.9989 4.99997C10.9989 5.79562 10.6828 6.55868 10.1202 7.12129C9.55761 7.6839 8.79455 7.99997 7.9989 7.99997Z" fill="#666666"/>
</svg>
